<?xml version="1.0" encoding="UTF-8"?>
<svg id="Capa_1" data-name="Capa 1" xmlns="http://www.w3.org/2000/svg" xmlns:xlink="http://www.w3.org/1999/xlink" viewBox="0 0 45 45">
  <defs>
    <style>
      .cls-1 {
        fill: #00b1fb;
      }

      .cls-1, .cls-2 {
        stroke-width: 0px;
      }

      .cls-2 {
        fill: #fff;
      }
    </style>
    <symbol id="Nuevo_símbolo_2" data-name="Nuevo símbolo 2" viewBox="0 0 602.85 602.85">
      <g>
        <circle class="cls-1" cx="301.42" cy="301.42" r="301.42"/>
        <path class="cls-2" d="M222.18,300.92c0-1.81,0-2.91,0-4.02,0-17.16.07-34.31-.07-51.47-.03-3.13.9-4,3.99-3.94,9.64.19,19.29.07,28.93.07,1.21,0,2.42,0,4.04,0,0-1.5,0-2.7,0-3.89,0-14.91-.07-29.83,0-44.74.07-15.65,3.87-30,15.24-41.47,10.06-10.14,22.72-15.11,36.56-16.9,8.19-1.06,16.53-1.18,24.81-1.29,13.68-.2,27.36.02,41.04-.11,2.8-.03,3.91.52,3.89,3.65-.15,17.27-.07,34.54-.08,51.81,0,.88-.09,1.76-.16,3.15-1.29,0-2.47,0-3.65,0-9.2,0-18.39-.08-27.58.04-2.77.04-5.62.31-8.3,1.01-6.65,1.75-10.95,6.14-11.18,13.06-.39,11.72-.11,23.47-.11,35.56h51.19c-.21,3.45-.36,6.54-.58,9.62-1.08,14.98-2.24,29.96-3.19,44.95-.18,2.85-1.01,3.78-3.96,3.74-12.78-.17-25.57-.08-38.35-.08-1.21,0-2.43,0-3.98,0v169.72c-1.61.09-2.9.21-4.2.22-20.74.01-41.49-.07-62.23.09-3.33.02-4.05-1.03-4.04-4.18.09-53.49.06-106.98.06-160.46,0-1.23,0-2.45,0-4.13h-38.07Z"/>
      </g>
    </symbol>
  </defs>
  <use width="602.85" height="602.85" transform="translate(2.5 2.5) scale(.07)" xlink:href="#Nuevo_símbolo_2"/>
</svg>