<?xml version="1.0" encoding="UTF-8"?>
<svg id="Capa_1" data-name="Capa 1" xmlns="http://www.w3.org/2000/svg" xmlns:xlink="http://www.w3.org/1999/xlink" viewBox="0 0 45 45">
  <defs>
    <style>
      .cls-1 {
        fill: #00b1fb;
      }

      .cls-1, .cls-2 {
        stroke-width: 0px;
      }

      .cls-2 {
        fill: #fff;
      }
    </style>
    <symbol id="Nuevo_símbolo_1" data-name="Nuevo símbolo 1" viewBox="0 0 602.85 602.85">
      <g>
        <circle class="cls-1" cx="301.42" cy="301.42" r="301.42"/>
        <g>
          <path class="cls-2" d="M302.44,467.53c-23.72,0-47.47.61-71.17-.12-57.5-1.76-93.19-35.29-95.03-92.43-1.64-51.16-1.2-102.47.74-153.62,1.89-49.78,41.84-85.94,91.9-86.16,48.17-.21,96.35-.1,144.52-.03,51.34.07,91.6,37.01,93.07,88.19,1.49,52.17,1.52,104.45.03,156.62-1.39,48.48-38.14,84.48-86.8,86.84-25.69,1.25-51.5.22-77.25.22,0,.16,0,.33,0,.49ZM301.98,165.28c-24.1,0-48.21-.31-72.3.07-39.41.62-63.4,24.21-63.89,63.82-.59,47.52-.59,95.05,0,142.57.45,36.66,24.54,63.29,60.1,64.22,50.2,1.32,100.48,1.25,150.68,0,35.56-.88,59.51-25.53,60.01-60.37.71-49.88.73-99.8-.18-149.68-.65-35.58-26.42-59.97-62.12-60.55-24.09-.39-48.2-.07-72.3-.1Z"/>
          <path class="cls-2" d="M216.02,301.19c-.23-47.83,38.13-86.41,85.68-86.17,46.07.24,85.55,39.33,85.69,84.84.14,46.51-38.64,85.12-85.79,85.4-46.7.28-85.36-37.69-85.58-84.07ZM301.04,355.16c30.45-.09,54.55-24.28,54.74-54.94.19-30.08-24.59-55.16-54.61-55.28-29.89-.12-55.22,24.81-55.53,54.65-.32,30.48,24.78,55.66,55.41,55.56Z"/>
          <path class="cls-2" d="M389.69,230.98c-11.49-.03-20.2-8.47-20.19-19.58,0-10.89,9.03-19.8,20.07-19.82,11.17-.02,20.17,8.76,20.18,19.69.01,11.09-8.79,19.74-20.06,19.71Z"/>
        </g>
      </g>
    </symbol>
  </defs>
  <use width="602.85" height="602.85" transform="translate(2.5 2.5) scale(.07)" xlink:href="#Nuevo_símbolo_1"/>
</svg>