<?xml version="1.0" encoding="UTF-8"?>
<svg id="Capa_1" data-name="Capa 1" xmlns="http://www.w3.org/2000/svg" xmlns:xlink="http://www.w3.org/1999/xlink" viewBox="0 0 45 45">
  <defs>
    <style>
      .cls-1 {
        fill: #00b1fb;
      }

      .cls-1, .cls-2 {
        stroke-width: 0px;
      }

      .cls-2 {
        fill: #fff;
      }
    </style>
    <symbol id="Nuevo_símbolo" data-name="Nuevo símbolo" viewBox="0 0 602.85 602.85">
      <g>
        <circle class="cls-1" cx="301.42" cy="301.42" r="301.42"/>
        <path class="cls-2" d="M270.78,256.2v67.17c-3.7,0-7.21.12-10.72-.02-21.11-.84-38.12,9.19-46.65,27.6-8.21,17.73-4.96,38.57,8.27,52.93,13.54,14.69,34.35,19.56,53.47,12.5,20.38-7.52,32.8-25.28,32.84-46.93.16-82.63.33-165.25.49-247.88,0-1.61,0-3.23,0-5.25h64.19c1.59,23.35,10.36,43.6,27.34,59.93,16.85,16.2,37.23,24.27,60.79,25.12v72.03c-33.47,3.53-62.91-4.77-88.31-29.41v7.14c0,39.85.02,79.69,0,119.54-.04,60.64-44.56,109.26-105.55,115.34-57.48,5.72-111.42-34.82-122.72-92.79-13.76-70.58,39.58-137.29,113.15-137.01,4.36.02,8.71,0,13.42,0Z"/>
      </g>
    </symbol>
  </defs>
  <use width="602.85" height="602.85" transform="translate(2.5 2.5) scale(.07)" xlink:href="#Nuevo_símbolo"/>
</svg>