<?xml version="1.0" encoding="UTF-8"?>
<svg id="Capa_1" data-name="Capa 1" xmlns="http://www.w3.org/2000/svg" xmlns:xlink="http://www.w3.org/1999/xlink" viewBox="0 0 45 45">
  <defs>
    <style>
      .cls-1 {
        fill: #00b1fb;
      }

      .cls-1, .cls-2 {
        stroke-width: 0px;
      }

      .cls-2 {
        fill: #fff;
      }
    </style>
    <symbol id="Nuevo_símbolo_3" data-name="Nuevo símbolo 3" viewBox="0 0 602.85 602.85">
      <g>
        <circle class="cls-1" cx="301.42" cy="301.42" r="301.42"/>
        <path class="cls-2" d="M476.62,307.24c-.23,6.97-.34,13.95-.74,20.91-.58,10.19-1.28,20.38-2.12,30.56-.72,8.79-1.85,17.56-4.12,26.09-4.64,17.43-15.89,28.31-33.37,32.61-3.8.94-7.76,1.32-11.68,1.7-9.62.94-19.24,1.9-28.88,2.53-10.01.65-20.04.95-30.07,1.36-4.9.2-9.8.38-14.71.46-6.43.1-12.85.07-19.28.16-9.49.13-18.98.44-28.48.45-12.38.01-24.76-.06-37.14-.33-14.91-.32-29.81-.74-44.71-1.38-10.51-.45-21.01-1.28-31.51-2.06-8.35-.61-16.69-1.43-24.82-3.49-12.18-3.07-21.35-10.19-27.65-21.05-3.49-6.03-4.97-12.69-6.14-19.44-2.6-15.06-3.83-30.26-4.34-45.52-.44-13.36-.77-26.73-.64-40.09.11-11.37.8-22.75,1.52-34.11.7-11.13,1.99-22.21,4.02-33.2,1.66-8.98,4.91-17.19,11.07-24.07,7.27-8.12,16.28-12.97,27.08-14.64,10.54-1.63,21.14-2.69,31.78-3.21,15.64-.76,31.28-1.39,46.92-2.08.04,0,.09-.02.13,0,2.46.88,4.88-.22,7.32-.14,2.29.07,4.58.09,6.87.06,14.21-.19,28.42-.5,42.63-.56,11.34-.05,22.69.2,34.03.35.7,0,1.39.34,2.09.38.53.03,1.08-.24,1.62-.25,1.16-.03,2.33.01,3.49.05,12.23.43,24.47.8,36.69,1.32,7.77.33,15.54.87,23.31,1.36,1.43.09,2.84.41,4.26.56.7.08,1.42.04,2.13.05.31,0,.65-.09.94-.02,3.38.9,7.03.14,10.31,1.7.2.1.54-.1.82-.16.28-.07.58-.24.84-.2,6.93,1.03,13.88,1.97,20.24,5.23,12.49,6.41,20.3,16.46,23.56,30.09,2.31,9.65,3.69,19.45,4.34,29.33.88,13.28,1.56,26.58,2.12,39.88.26,6.24.05,12.51.05,18.76.06,0,.12,0,.18,0ZM255.56,353.71c.15.07.3.13.44.2,30.27-17.45,60.55-34.9,91.07-52.5-30.58-17.62-60.85-35.05-91.51-52.72v105.02Z"/>
      </g>
    </symbol>
  </defs>
  <use width="602.85" height="602.85" transform="translate(2.5 2.5) scale(.07)" xlink:href="#Nuevo_símbolo_3"/>
</svg>