<svg width="92" height="125" viewBox="0 0 92 125" fill="none" xmlns="http://www.w3.org/2000/svg">
<g filter="url(#filter0_d_96_234)">
<path d="M50 18.8391V94.262L71.172 68.6484C71.5419 68.1908 71.9832 67.8266 72.4703 67.5767C72.9574 67.3269 73.4806 67.1964 74.0096 67.1929C74.5387 67.1894 75.063 67.3129 75.5524 67.5562C76.0417 67.7995 76.4863 68.1579 76.8603 68.6105C77.2344 69.0631 77.5305 69.601 77.7316 70.193C77.9326 70.7851 78.0346 71.4195 78.0316 72.0595C78.0286 72.6995 77.9207 73.3325 77.7141 73.9217C77.5075 74.5109 77.2063 75.0447 76.828 75.4922L48.828 109.366C48.0779 110.273 47.0607 110.783 46 110.783C44.9393 110.783 43.9221 110.273 43.172 109.366L15.172 75.4922C14.7998 75.0433 14.5047 74.5098 14.3036 73.9225C14.1024 73.3351 13.9993 72.7054 14 72.0697C14.0002 71.1127 14.2349 70.1773 14.6744 69.3817C15.1139 68.5861 15.7386 67.966 16.4694 67.5999C17.2002 67.2337 18.0043 67.1379 18.7801 67.3245C19.5559 67.5111 20.2686 67.9718 20.828 68.6484L42 94.262V18.8391C42 17.5557 42.4214 16.3249 43.1716 15.4174C43.9217 14.5098 44.9391 14 46 14C47.0609 14 48.0783 14.5098 48.8284 15.4174C49.5786 16.3249 50 17.5557 50 18.8391Z" fill="#00B2FA"/>
</g>
<defs>
<filter id="filter0_d_96_234" x="0.2" y="0.2" width="91.6317" height="124.383" filterUnits="userSpaceOnUse" color-interpolation-filters="sRGB">
<feFlood flood-opacity="0" result="BackgroundImageFix"/>
<feColorMatrix in="SourceAlpha" type="matrix" values="0 0 0 0 0 0 0 0 0 0 0 0 0 0 0 0 0 0 127 0" result="hardAlpha"/>
<feOffset/>
<feGaussianBlur stdDeviation="6.9"/>
<feComposite in2="hardAlpha" operator="out"/>
<feColorMatrix type="matrix" values="0 0 0 0 0 0 0 0 0 0.698039 0 0 0 0 0.980392 0 0 0 1 0"/>
<feBlend mode="normal" in2="BackgroundImageFix" result="effect1_dropShadow_96_234"/>
<feBlend mode="normal" in="SourceGraphic" in2="effect1_dropShadow_96_234" result="shape"/>
</filter>
</defs>
</svg>
