<?xml version="1.0" encoding="UTF-8"?>
<svg id="Layer_1" data-name="Layer 1" xmlns="http://www.w3.org/2000/svg" version="1.1" xmlns:xlink="http://www.w3.org/1999/xlink" viewBox="0 0 1920 1554.8">
  <defs>
    <style>
      .cls-1 {
        stroke: #1374db;
        stroke-width: 15px;
      }

      .cls-1, .cls-2 {
        fill: none;
        stroke-linecap: round;
        stroke-miterlimit: 10;
      }

      .cls-3 {
        isolation: isolate;
      }

      .cls-4 {
        fill: url(#Degradado_sin_nombre);
      }

      .cls-4, .cls-5 {
        stroke-width: 0px;
      }

      .cls-5 {
        fill: url(#Degradado_sin_nombre_2);
      }

      .cls-2 {
        stroke: #0e51ba;
        stroke-width: 10px;
      }
    </style>
    <linearGradient id="Degradado_sin_nombre" data-name="Degradado sin nombre" x1="798.1" y1="422" x2="798.1" y2="1106" gradientTransform="translate(0 1552.9) scale(1 -1)" gradientUnits="userSpaceOnUse">
      <stop offset="0" stop-color="#843f9a"/>
      <stop offset=".4" stop-color="#823e98"/>
      <stop offset=".6" stop-color="#7d3b91"/>
      <stop offset=".7" stop-color="#723786"/>
      <stop offset=".8" stop-color="#643075"/>
      <stop offset=".8" stop-color="#51275f"/>
      <stop offset=".9" stop-color="#3a1c43"/>
      <stop offset=".9" stop-color="#1f0f24"/>
      <stop offset="1" stop-color="#000"/>
    </linearGradient>
    <linearGradient id="Degradado_sin_nombre_2" data-name="Degradado sin nombre 2" x1="1127.4" y1="454.1" x2="1127.4" y2="1122.9" gradientTransform="translate(0 1552.9) scale(1 -1)" gradientUnits="userSpaceOnUse">
      <stop offset="0" stop-color="#000"/>
      <stop offset="0" stop-color="#030306"/>
      <stop offset="0" stop-color="#15142a"/>
      <stop offset=".1" stop-color="#25234a"/>
      <stop offset=".2" stop-color="#323066"/>
      <stop offset=".2" stop-color="#3d3a7c"/>
      <stop offset=".3" stop-color="#46428d"/>
      <stop offset=".4" stop-color="#4c4898"/>
      <stop offset=".6" stop-color="#4f4b9f"/>
      <stop offset="1" stop-color="#504ca1"/>
    </linearGradient>
  </defs>
  <image class="cls-3" width="452" height="768" transform="translate(572 401.2)" xlink:href="AROS DE LUZ (PARTE DE LUIS, CORREGIDO)-1.png"/>
  <path class="cls-4" d="M971.3,1123.1c-10.6.2-21.2-.1-31.8-.7-5.3-.5-10.6-.8-15.8-1.4l-15.8-2.1c-151.2-23.8-268.5-144.7-287.7-296.6-.6-5.2-1.4-10.4-1.6-15.7l-.5-7.8-.3-3.9c0-1.3,0-2.6-.1-3.9v-7.9c-.1,0-.2-3.9-.2-3.9,0-1.3,0-2.6,0-3.9l.2-7.9v-3.9c.1,0,.2-2,.2-2l.2-2c2.4-41.9,12.5-83.1,29.8-121.4,1-2.4,2.2-4.8,3.3-7.1l3.5-7c.6-1.2,1.2-2.3,1.8-3.5l1.9-3.5,3.7-6.9,4-6.7,2-3.4c.7-1.1,1.3-2.2,2.1-3.3l4.3-6.6,2.2-3.3c.7-1.1,1.5-2.1,2.2-3.2,12-17.1,25.5-33.1,40.3-47.8,14.8-14.7,31-27.9,48.3-39.6,34.6-23.4,73.1-40.2,113.7-49.6-40.4,10-78.6,27.4-112.7,51.2-17,11.9-32.8,25.3-47.3,40.1-14.5,14.8-27.6,30.8-39.2,47.9-.7,1.1-1.5,2.1-2.2,3.2l-2.1,3.3-4.2,6.5c-.7,1.1-1.3,2.2-2,3.3l-1.9,3.4-3.9,6.7-3.6,6.9-1.8,3.4c-.6,1.1-1.2,2.3-1.7,3.5l-3.3,7c-1.1,2.3-2.2,4.7-3.2,7-16.4,37.9-25.8,78.5-27.5,119.8v1.9c-.1,0-.1,1.9-.1,1.9v11.6c-.1,1.3-.1,2.6,0,3.9v3.8c.1,0,.4,7.7.4,7.7,0,1.3,0,2.6.2,3.8l.3,3.8.6,7.7c.3,5.1,1.2,10.2,1.8,15.3,20.6,146.8,135.6,262.3,282.3,283.7l15.1,1.8c5.1.4,10.2.7,15.2,1.1,10.2.4,20.3.6,30.5.2h0c4.1-.1,7.6,3.1,7.8,7.2.1,4.1-3.1,7.6-7.2,7.8h0Z"/>
  <image class="cls-3" width="441" height="760" transform="translate(907 384.2)" xlink:href="AROS DE LUZ (PARTE DE LUIS, CORREGIDO)-2.png"/>
  <path class="cls-5" d="M960,430c40.8.4,81.2,7.9,119.5,22.2,96.3,36.4,171.4,113.8,204.7,211.3,6.6,19.1,11.4,38.7,14.4,58.7,3,19.9,4.2,40.1,3.8,60.2-.5,20.1-2.7,40.2-6.7,59.9-8,39.5-22.9,77.2-44.2,111.4-.7,1.1-1.3,2.2-2,3.2l-2.1,3.1-4.1,6.3c-1.4,2.1-2.9,4.1-4.3,6.1s-2.9,4.1-4.4,6.1l-4.6,5.9c-1.6,2-3,4-4.7,5.9l-4.8,5.8c-.8,1-1.6,1.9-2.4,2.9l-2.5,2.8c-13.4,14.9-28,28.6-43.7,41-31.5,24.7-67.2,43.6-105.2,56,37.8-12.9,73-32.3,104.1-57.4,15.4-12.5,29.8-26.4,42.8-41.4l2.5-2.8c.8-.9,1.6-1.9,2.4-2.9l4.7-5.8c1.6-1.9,3-3.9,4.5-5.9l4.5-6c1.4-2,2.8-4.1,4.2-6.1s2.9-4,4.2-6.2l4-6.3,2-3.1c.7-1.1,1.3-2.1,1.9-3.2,20.4-34.1,34.6-71.5,41.8-110.5,3.6-19.4,5.5-39.2,5.7-58.9.1-19.8-1.4-39.5-4.6-59-13-77.8-54.5-150.4-114.9-200.5-60.5-50.9-137.2-78.5-216.2-77.8h0c-4.1,0-7.5-3.3-7.5-7.5,0-4.1,3.3-7.5,7.5-7.5h0Z"/>
  <image class="cls-3" width="1130" height="1131" transform="translate(395 214.4)" xlink:href="AROS DE LUZ (PARTE DE LUIS, CORREGIDO)-3.png"/>
  <path class="cls-1" d="M1449.4,627.9c15.3,49.3,23.1,100.7,23,152.4,0,283-229.4,512.5-512.5,512.5s-512.4-229.4-512.4-512.5,229.5-512.5,512.5-512.5,352,101,441.3,251.7"/>
  <image class="cls-3" width="1348" height="1348" transform="translate(286 103.4)" xlink:href="AROS DE LUZ (PARTE DE LUIS, CORREGIDO)-4.png"/>
  <path class="cls-2" d="M370.9,624.1c67.8-262.1,305.9-455.6,589.1-455.6s608.5,272.4,608.5,608.5-272.4,608.5-608.5,608.5-608.5-272.4-608.5-608.5"/>
</svg>