<?xml version="1.0" encoding="UTF-8"?>
<svg id="Capa_1" data-name="Capa 1" xmlns="http://www.w3.org/2000/svg" xmlns:xlink="http://www.w3.org/1999/xlink" viewBox="0 0 42.5 42.5">
  <defs>
    <style>
      .cls-1 {
        fill: #007bf9;
        stroke-width: 0px;
      }

      .cls-2 {
        fill: none;
        stroke: #fff;
        stroke-linecap: round;
        stroke-linejoin: round;
        stroke-width: 3px;
      }
    </style>
    <symbol id="Nuevo_símbolo_1" data-name="Nuevo símbolo 1" viewBox="0 0 103.41 103.41">
      <g>
        <circle class="cls-1" cx="51.7" cy="51.7" r="51.7"/>
        <g>
          <path class="cls-2" d="M36.45,68.62l-4.57-4.57c-.4-.4-.4-1.06,0-1.47l4.34-4.34c.4-.4,1.06-.4,1.47,0l16.79,16.79c.4.4.4,1.06,0,1.47l-4.34,4.34c-.4.4-1.06.4-1.47,0l-4.77-4.77"/>
          <line class="cls-2" x1="40.08" y1="72.25" x2="39.98" y2="72.14"/>
          <path class="cls-2" d="M38.4,58.03s4.65-2.89,4.77-7.83c.12-4.94-1.04-12.81,1.45-13.72,2.71-1,4.95,2.26,5.21,6.91.05.88,1.09,1.32,1.74.72,10.23-9.5,12.33-11.34,12.33-11.34,0,0,2.89-3.12,4.89-1.28,2.57,2.37,0,5,0,5l-5.93,6.02-5.46,5.54"/>
          <path class="cls-2" d="M61.43,43.95s2.45-2.49,4.59.58c1.3,1.87,0,3.67,0,3.67l-4.17,4.39"/>
          <path class="cls-2" d="M64.5,49.8s2.44-3.06,4.68-1.04c2.68,2.41-.68,5.09-.68,5.09l-2.63,2.77"/>
          <path class="cls-2" d="M54.52,74.42s13.79-10.89,15.48-13,2.43-3.91,1.3-5.61c-.77-1.16-2.68-2.12-4.23-.45"/>
          <path class="cls-2" d="M42.14,26.8c.28.31,4.28,4.78,4.28,4.78"/>
          <line class="cls-2" x1="50.91" y1="22.27" x2="51.08" y2="28.66"/>
          <line class="cls-2" x1="59.52" y1="26.8" x2="54.86" y2="31.94"/>
        </g>
      </g>
    </symbol>
  </defs>
  <use width="103.41" height="103.41" transform="translate(1.25 1.25) scale(.39)" xlink:href="#Nuevo_símbolo_1"/>
</svg>